<svg width="96" height="97" viewBox="0 0 96 97" fill="none" xmlns="http://www.w3.org/2000/svg">
<g clip-path="url(#clip0_2657_6424)">
<path d="M22.6875 12.125H43.3125C44.8657 12.125 46.125 10.8658 46.125 9.3125V4.25C46.125 2.17888 44.4461 0.5 42.375 0.5H23.625C21.5539 0.5 19.875 2.17888 19.875 4.25V9.3125C19.875 10.8658 21.1342 12.125 22.6875 12.125ZM94.3524 86.8976L86.3974 78.9427C84.2006 76.7459 80.6391 76.7459 78.4423 78.9427C76.2456 81.1394 76.2456 84.701 78.4423 86.8976L86.3974 94.8526C88.5941 97.0494 92.1557 97.0494 94.3522 94.8526C96.5492 92.6557 96.5492 89.0941 94.3524 86.8976ZM75.9793 57.7293C75.9793 47.3741 67.5847 38.9793 57.2293 38.9793C46.8741 38.9793 38.4793 47.3741 38.4793 57.7293C38.4793 68.0847 46.8741 76.4793 57.2293 76.4793C61.3922 76.4793 65.2378 75.1218 68.349 72.8264L72.7281 77.2055C73.2101 76.3883 73.7938 75.6355 74.4651 74.9651C75.1356 74.294 75.8878 73.7099 76.704 73.2266L72.3264 68.849C74.6218 65.7378 75.9793 61.8924 75.9793 57.7293ZM56.5665 65.0214C55.4681 66.1198 53.6874 66.1198 52.5891 65.0214L47.2856 59.7181C46.1873 58.6197 46.1873 56.8391 47.2856 55.7407C48.384 54.6423 50.1647 54.6423 51.2631 55.7407L54.5777 59.0553L63.1956 50.4374C64.2939 49.3391 66.0746 49.3391 67.173 50.4374C68.2714 51.5358 68.2714 53.3165 67.173 54.4149L56.5665 65.0214Z" fill="black"/>
<path d="M54.7087 81.9748C54.7339 82.1257 54.75 82.2796 54.75 82.4377C54.75 83.9909 53.4907 85.2502 51.9375 85.2502H14.0625C12.5092 85.2502 11.25 83.9909 11.25 82.4377C11.25 80.8844 12.5092 79.6252 14.0625 79.6252H46.5262C43.7127 78.2425 41.1906 76.333 39.0964 74.0002H14.0625C12.5092 74.0002 11.25 72.7409 11.25 71.1877C11.25 69.6344 12.5092 68.3752 14.0625 68.3752H35.3051C34.4329 66.5867 33.7848 64.6974 33.3754 62.7502H14.0625C12.5092 62.7502 11.25 61.4909 11.25 59.9377C11.25 58.3844 12.5092 57.1252 14.0625 57.1252H32.8622C32.9081 55.2253 33.1766 53.3374 33.6624 51.5002H14.0625C12.5092 51.5002 11.25 50.2409 11.25 48.6877C11.25 47.1344 12.5092 45.8752 14.0625 45.8752H35.9379C37.0983 43.8007 38.554 41.9059 40.2594 40.2502H14.0625C12.5092 40.2502 11.25 38.9909 11.25 37.4377C11.25 35.8844 12.5092 34.6252 14.0625 34.6252H49.4576C51.8996 33.8017 54.5132 33.3547 57.2295 33.3547C60.3199 33.3547 63.2771 33.9341 66 34.9878V14.9375C66 10.2851 62.2149 6.5 57.5625 6.5H51.75V9.3125C51.75 13.9649 47.9649 17.75 43.3125 17.75H22.6875C18.0351 17.75 14.25 13.9649 14.25 9.3125V6.5H8.4375C3.78506 6.5 0 10.2851 0 14.9375V88.0625C0 92.7149 3.78506 96.5 8.4375 96.5H57.5625C62.2149 96.5 66 92.7149 66 88.0625V80.4712C63.2771 81.5249 60.3199 82.1043 57.2295 82.1043C56.3876 82.1045 55.5462 82.0612 54.7087 81.9748ZM14.0625 23.375H51.9375C53.4907 23.375 54.75 24.6343 54.75 26.1875C54.75 27.7407 53.4907 29 51.9375 29H14.0625C12.5092 29 11.25 27.7407 11.25 26.1875C11.25 24.6343 12.5092 23.375 14.0625 23.375Z" fill="black"/>
</g>
<defs>
<clipPath id="clip0_2657_6424">
<rect width="96" height="96" fill="white" transform="translate(0 0.5)"/>
</clipPath>
</defs>
</svg>
