<svg width="96" height="96" viewBox="0 0 96 96" fill="none" xmlns="http://www.w3.org/2000/svg">
<path fill-rule="evenodd" clip-rule="evenodd" d="M92.6827 69.3986L89.4579 68.1574C89.4293 68.1468 89.4039 68.1293 89.3838 68.1065C89.3637 68.0836 89.3496 68.0562 89.3427 68.0265C88.912 66.2608 88.2119 64.5721 87.2671 63.0195C87.2509 62.9938 87.2413 62.9643 87.2393 62.9339C87.2374 62.9035 87.243 62.8731 87.2559 62.8455L88.6593 59.6856C88.6752 59.6509 88.68 59.6123 88.673 59.5748C88.6661 59.5373 88.6477 59.5029 88.6205 59.4763L84.8321 55.6881C84.8054 55.6609 84.7711 55.6425 84.7337 55.6356C84.6963 55.6286 84.6576 55.6334 84.623 55.6493L81.4619 57.0531C81.4343 57.0658 81.404 57.0714 81.3736 57.0694C81.3433 57.0675 81.3139 57.058 81.2881 57.0418C79.7359 56.0973 78.0476 55.3973 76.2824 54.9666C76.2528 54.9598 76.2253 54.9457 76.2024 54.9256C76.1796 54.9055 76.1621 54.88 76.1516 54.8514L74.9101 51.6259C74.8968 51.5902 74.8728 51.5595 74.8414 51.5379C74.81 51.5164 74.7727 51.505 74.7346 51.5055H69.3772C69.3391 51.5051 69.3019 51.5164 69.2705 51.538C69.2391 51.5595 69.2151 51.5902 69.2019 51.6259L67.9603 54.8514C67.9497 54.88 67.9323 54.9055 67.9094 54.9256C67.8866 54.9457 67.859 54.9598 67.8294 54.9666C66.0642 55.3974 64.3759 56.0973 62.8237 57.0418C62.7979 57.058 62.7685 57.0675 62.7381 57.0694C62.7077 57.0714 62.6773 57.0658 62.6497 57.0531L59.4886 55.6493C59.454 55.6334 59.4153 55.6286 59.3778 55.6355C59.3404 55.6425 59.306 55.6608 59.2794 55.6881L55.4909 59.4765C55.4637 59.5031 55.4453 59.5375 55.4384 59.575C55.4315 59.6124 55.4362 59.6511 55.4521 59.6858L56.8559 62.8464C56.8686 62.8741 56.8743 62.9045 56.8723 62.9349C56.8704 62.9652 56.8609 62.9947 56.8447 63.0204C55.9002 64.5728 55.2002 66.2612 54.7694 68.0265C54.7626 68.0562 54.7485 68.0837 54.7284 68.1065C54.7083 68.1294 54.6829 68.1469 54.6543 68.1574L51.4291 69.3988C51.3934 69.4121 51.3627 69.4361 51.3411 69.4675C51.3195 69.4989 51.3081 69.5362 51.3086 69.5743V74.9318C51.3086 75.0111 51.3551 75.0788 51.4291 75.1071L54.6537 76.3483C54.6823 76.3589 54.7078 76.3763 54.7279 76.3992C54.748 76.422 54.7621 76.4495 54.7689 76.4792C55.1998 78.2447 55.8998 79.9334 56.8445 81.486C56.8607 81.5118 56.8702 81.5412 56.8721 81.5716C56.8741 81.602 56.8685 81.6323 56.8557 81.66L55.4523 84.8199C55.4365 84.8546 55.4317 84.8933 55.4387 84.9307C55.4456 84.9681 55.4639 85.0025 55.4911 85.0292L59.2796 88.8176C59.3062 88.8449 59.3406 88.8632 59.378 88.8702C59.4155 88.8771 59.4542 88.8723 59.4888 88.8564L62.6499 87.4526C62.6775 87.4398 62.7079 87.4342 62.7383 87.4361C62.7687 87.438 62.7981 87.4475 62.8239 87.4637C64.3761 88.4082 66.0644 89.1082 67.8296 89.5389C67.8912 89.5539 67.9376 89.5948 67.9604 89.6541L69.2021 92.8796C69.2153 92.9153 69.2393 92.9461 69.2708 92.9676C69.3022 92.9892 69.3395 93.0005 69.3776 93H74.735C74.7731 93.0004 74.8104 92.9891 74.8418 92.9675C74.8732 92.946 74.8972 92.9153 74.9105 92.8796L76.1517 89.6548C76.1623 89.6263 76.1798 89.6008 76.2026 89.5807C76.2255 89.5606 76.253 89.5465 76.2826 89.5397C78.0482 89.1088 79.737 88.4088 81.2896 87.4641C81.3154 87.4479 81.3448 87.4383 81.3752 87.4364C81.4056 87.4344 81.436 87.4401 81.4636 87.4528L84.6236 88.8563C84.6582 88.8721 84.6969 88.8769 84.7343 88.87C84.7718 88.863 84.8062 88.8447 84.8328 88.8174L88.6212 85.029C88.6485 85.0024 88.6668 84.968 88.6738 84.9305C88.6807 84.8931 88.6759 84.8544 88.6601 84.8198L87.2562 81.6587C87.2434 81.6311 87.2377 81.6007 87.2397 81.5703C87.2417 81.5399 87.2512 81.5104 87.2675 81.4847C88.212 79.9325 88.9119 78.2442 89.3426 76.479C89.3494 76.4494 89.3635 76.4219 89.3836 76.399C89.4037 76.3762 89.4292 76.3587 89.4577 76.3481L92.6832 75.1065C92.7189 75.0932 92.7497 75.0692 92.7712 75.0378C92.7928 75.0064 92.8041 74.9691 92.8036 74.931V69.5738C92.8038 69.5357 92.7923 69.4985 92.7707 69.4672C92.7491 69.4358 92.7184 69.4119 92.6827 69.3986ZM72.0558 82.1477C66.5906 82.1477 62.1609 77.718 62.1609 72.2529C62.1609 66.7877 66.5906 62.358 72.0558 62.358C77.5211 62.358 81.9507 66.7877 81.9507 72.2529C81.9507 77.718 77.5212 82.1477 72.0558 82.1477ZM39.4413 24.8385C31.5822 24.8385 25.211 31.2096 25.211 39.0688C25.211 46.9279 31.5821 53.2991 39.4413 53.2991C47.3006 53.2991 53.6716 46.9281 53.6716 39.0688C53.6718 31.2096 47.3006 24.8385 39.4413 24.8385ZM47.7048 36.5421L39.0963 45.1506C37.8517 46.3954 36.1867 45.8893 35.0829 44.7855L31.1782 40.8808C30.2017 39.9045 30.2019 38.3068 31.1782 37.3305C32.1545 36.3542 33.7522 36.354 34.7285 37.3305L37.2721 39.8741L44.1545 32.9918C45.1308 32.0154 46.7285 32.0154 47.7048 32.9918C48.6813 33.9681 48.6813 35.5658 47.7048 36.5421ZM69.7522 32.0599C68.9894 28.8558 67.7202 25.794 65.9924 22.9899L68.6086 17.0994L61.664 10.155L55.7718 12.7719C52.9683 11.0449 49.9074 9.77593 46.7043 9.01275L44.3898 3H34.5689L32.2542 9.01275C29.0511 9.77576 25.9902 11.0448 23.1867 12.7719L17.2947 10.1552L10.3501 17.0998L12.9669 22.9914C11.2395 25.795 9.97038 28.8562 9.2075 32.0597L3.19531 34.374V44.1949L9.20675 46.5088C9.96969 49.7129 11.239 52.7747 12.9667 55.5788L10.3505 61.4691L17.2951 68.4135L23.1875 65.7966C25.9909 67.5236 29.0519 68.7926 32.255 69.5556L34.5695 75.5685H44.3904L46.7041 69.5571C47.2538 69.4263 47.7998 69.2805 48.3414 69.1196C48.4219 68.5586 48.6506 68.0292 49.004 67.5861C49.3574 67.143 49.8227 66.8022 50.3517 66.5989L52.2667 65.8618C52.609 64.8019 53.0363 63.7713 53.5443 62.7801L52.7109 60.9032C52.1776 59.7024 52.4411 58.2842 53.3701 57.3549L57.1584 53.5665C58.0874 52.6374 59.5057 52.374 60.7066 52.9073L62.5839 53.7409C63.575 53.233 64.6055 52.8057 65.6652 52.4633L66.4025 50.5479C66.623 49.9743 67.0047 49.4767 67.5017 49.1151C67.9986 48.7535 68.5895 48.5433 69.2032 48.51C69.4079 47.85 69.5909 47.1825 69.7512 46.5088L75.7642 44.1943V34.3734L69.7522 32.0599ZM39.4794 61.2542C27.3457 61.2542 17.5094 51.4179 17.5094 39.2841C17.5094 27.1504 27.3457 17.3141 39.4794 17.3141C51.6131 17.3141 61.4493 27.1504 61.4493 39.2841C61.4493 51.4179 51.6131 61.2542 39.4794 61.2542Z" fill="black"/>
</svg>
