<svg width="162" height="199" viewBox="0 0 162 199" fill="none" xmlns="http://www.w3.org/2000/svg">
<path d="M161.347 0.862893V105.847C161.347 105.847 161.347 147.751 121.943 187.779C117.643 183.579 113.267 178.353 108.817 172.103C104.092 165.402 98.7162 157.702 92.6906 149.026C86.6651 140.35 81.1146 132.274 75.9891 124.774C73.0138 120.623 69.9636 116.898 66.8133 113.548C63.6631 110.197 60.3878 107.622 57.0625 105.847V104.972C63.5631 102.797 69.7886 100.122 75.6891 96.9713C81.5896 93.8211 86.7901 90.0207 91.2155 85.5953C95.6409 81.1699 99.1912 76.0445 101.841 70.219C104.517 64.4185 105.842 57.8429 105.842 50.5422C105.842 38.6912 103.166 28.9154 97.866 21.1147C92.5406 13.314 85.54 7.16344 76.8642 2.61305C75.6891 1.98799 74.514 1.38794 73.3139 0.837891H161.347V0.862893Z" fill="#F4BC42" fill-opacity="0.7"/>
<path d="M96.3369 209.107C86.136 216.132 74.335 222.833 60.6838 228.908C-40 184.154 -40 105.847 -40 105.847V0.863281H34.1315C37.1317 1.73836 40.057 2.81345 42.8822 4.11357C52.3581 8.66397 59.5337 14.7645 64.4592 22.4402C69.3846 30.1158 71.8598 38.9166 71.8598 48.7675C71.8598 54.093 71.1847 59.2184 69.8096 64.1438C68.4345 69.0693 66.3093 73.6447 63.4591 77.895C60.6088 82.1454 56.9085 85.9457 52.3581 89.271C47.8077 92.6213 42.3822 95.2966 36.1067 97.2467C29.5811 99.4219 22.8555 100.847 15.8299 101.547C9.0543 102.222 1.75366 102.572 -6.04702 102.572L-6.12202 106.473C-3.6468 106.648 -1.62164 106.723 0.00350571 106.723C1.97868 106.723 4.85394 107.123 8.60427 107.898C13.7297 108.873 18.6051 111.348 23.2305 115.298C27.8559 119.249 32.1563 123.474 36.1067 128.024C40.8321 133.55 44.9074 138.525 48.3577 142.976C51.808 147.401 55.0083 151.802 57.9836 156.127C60.9339 160.477 63.8341 164.853 66.7093 169.303C69.5596 173.728 72.8849 178.729 76.6352 184.229C79.7855 188.78 82.1107 192.155 83.5608 194.43C85.0359 196.705 86.286 198.431 87.2611 199.606C88.2362 200.781 89.1363 201.831 89.9364 202.706C90.7115 203.606 91.9866 204.931 93.7867 206.706C94.5868 207.606 95.4368 208.406 96.3869 209.107H96.3369Z" fill="#F4BC42" fill-opacity="0.7"/>
</svg>
