<svg width="96" height="97" viewBox="0 0 96 97" fill="none" xmlns="http://www.w3.org/2000/svg">
<path d="M7.33919 32.4665H2.82036C1.26708 32.4665 0.0078125 33.7257 0.0078125 35.279C0.0078125 36.8323 1.26708 38.0916 2.82036 38.0916H7.33919C11.0647 37.9543 11.066 32.6043 7.33919 32.4665ZM93.1969 32.4665H88.6781C87.1248 32.4665 85.8656 33.7257 85.8656 35.279C85.8656 36.8323 87.1248 38.0916 88.6781 38.0916H93.1969C96.9226 37.9543 96.9238 32.6043 93.1969 32.4665ZM17.2622 8.50993C19.9934 11.0472 23.778 7.26528 21.2397 4.53242L18.0449 1.33756C16.9467 0.239348 15.1658 0.239348 14.0674 1.33756C12.969 2.43576 12.969 4.21667 14.0674 5.31506L17.2622 8.50993ZM78.7552 62.0481C76.0239 59.511 72.2397 63.293 74.7777 66.0256L77.9726 69.2205C79.0706 70.3185 80.8513 70.3193 81.9501 69.2205C83.0485 68.1223 83.0485 66.3414 81.9501 65.243L78.7552 62.0481ZM17.2622 62.0481L14.0674 65.243C12.969 66.3412 12.969 68.1221 14.0674 69.2205C15.1654 70.3185 16.9461 70.3193 18.0449 69.2205L21.2397 66.0256C23.7772 63.2943 19.9947 59.5103 17.2622 62.0481ZM77.9726 1.33756L74.7777 4.53242C73.6794 5.63063 73.6794 7.41154 74.7777 8.50993C75.8758 9.60795 77.6565 9.6087 78.7552 8.50993L81.9501 5.31506C84.4876 2.5837 80.7053 -1.20011 77.9726 1.33756ZM61.2239 38.0916L55.9196 43.3959C58.8767 49.1156 54.477 56.2533 48.0085 56.1669C43.1354 56.1669 39.1709 52.2025 39.1709 47.3293C39.085 40.8614 46.2223 36.4607 51.9421 39.4184L58.0701 33.2902C58.3312 33.029 58.6412 32.8218 58.9825 32.6804C59.3237 32.5391 59.6894 32.4663 60.0587 32.4663H79.3131C74.9544 -5.44332 21.0487 -5.41557 16.7039 32.4663H34.7934L40.0977 27.162C37.1406 21.4424 41.5404 14.3045 48.0088 14.391C52.8819 14.391 56.8464 18.3555 56.8464 23.2286C56.9323 29.6965 49.795 34.0972 44.0752 31.1393L37.9472 37.2675C37.6861 37.5287 37.3761 37.7359 37.0348 37.8773C36.6936 38.0186 36.3279 38.0914 35.9586 38.0914H16.7059C17.4149 45.9483 21.0706 53.2777 26.985 58.5302C30.206 61.5075 32.2953 65.5083 32.9358 69.8029C32.9428 69.8019 63.071 69.8019 63.0815 69.8029C63.7216 65.5092 65.8111 61.5079 69.0325 58.5302C74.9469 53.2778 78.6028 45.9483 79.3116 38.0914H61.2239V38.0916ZM33.146 78.6403C33.146 85.874 38.3415 91.9138 45.1963 93.2325C44.9167 97.5903 51.1021 97.5877 50.8214 93.2325C57.6761 91.9138 62.8717 85.874 62.8717 78.6403V75.4276H33.146V78.6403Z" fill="black"/>
</svg>
