<svg width="83" height="97" viewBox="0 0 83 97" fill="none" xmlns="http://www.w3.org/2000/svg">
<path d="M82.6374 82.0684L70.0711 60.4712C72.2456 59.8078 74.5621 59.222 75.5246 57.5601C77.1287 54.791 74.2734 50.2483 75.0231 47.2802C75.7954 44.2253 80.3547 41.582 80.3547 38.4769C80.3547 35.4516 75.6411 31.9174 74.8682 28.8805C74.1133 25.9129 76.96 21.3653 75.3508 18.5995C73.7415 15.8334 68.3814 16.0607 66.1749 13.9375C63.9047 11.7526 63.9117 6.40673 61.1734 4.9425C58.4239 3.47282 53.9555 6.44305 50.9027 5.73948C47.8848 5.04394 45.1885 0.5 42.0361 0.5C38.8371 0.5 33.7489 5.65438 32.9509 5.83988C29.8997 6.54916 25.4255 3.5862 22.6789 5.0621C19.9432 6.53126 19.9601 11.8776 17.694 14.0662C15.4911 16.1933 10.1307 15.9759 8.52642 18.745C6.92236 21.5137 9.77766 26.0553 9.02816 29.025C8.27659 32.0022 3.55857 35.0189 3.55857 38.4621C3.55857 41.5675 8.12924 44.2025 8.90623 47.2558C9.66144 50.2234 6.8147 54.7705 8.42395 57.5373C9.30005 59.0433 11.2878 59.6615 13.273 60.2559C13.5047 60.3251 13.9428 60.5843 13.646 61.0168L1.35678 82.2266C0.487164 83.7272 1.19334 85.0134 2.92556 85.0863L11.4046 85.4399C13.1368 85.5128 15.3098 86.7716 16.2344 88.2382L20.7589 95.4177C21.6835 96.8842 23.1506 96.8567 24.0199 95.3564C24.0199 95.3564 36.6794 73.5004 36.6846 73.4941C36.9386 73.1974 37.1939 73.2583 37.3161 73.3621C38.7012 74.5415 40.6321 75.718 42.2437 75.718C43.8241 75.718 45.2876 74.6105 46.7352 73.3753C46.853 73.2749 47.1397 73.0692 47.3493 73.4962C47.3527 73.503 59.9981 95.2394 59.9981 95.2394C60.8698 96.7379 62.3372 96.7633 63.2589 95.2949L67.7707 88.1069C68.6927 86.6393 70.8634 85.3756 72.5956 85.3001L81.0738 84.9307C82.8053 84.8546 83.5091 83.5666 82.6374 82.0684ZM56.0488 62.4084C46.674 67.8624 35.4212 67.2779 26.8262 61.8566C14.2321 53.7895 10.0882 37.1019 17.6592 24.0346C25.3166 10.8166 42.1493 6.15249 55.4864 13.4163C55.5564 13.4544 55.6257 13.4939 55.6952 13.5328C55.7941 13.5875 55.8926 13.6431 55.991 13.6991C60.1055 16.0713 63.6735 19.5142 66.2284 23.9056C74.0368 37.3276 69.4705 54.6 56.0488 62.4084Z" fill="black"/>
</svg>
